<mxfile host="app.diagrams.net" modified="2024-05-26T14:43:21.752Z" agent="Mozilla/5.0 (Windows NT 10.0; Win64; x64) AppleWebKit/537.36 (KHTML, like Gecko) Chrome/125.0.0.0 Safari/537.36" version="24.4.8" etag="IFNhl34vJ1QXbQMRkzfU" type="github">
  <diagram name="Page-1" id="S2am8CfX_kC7mYFcQpOj">
    <mxGraphModel>
      <root>
        <mxCell id="0" />
        <mxCell id="1" parent="0" />
      </root>
    </mxGraphModel>
  </diagram>
</mxfile>
